<mxfile host="app.diagrams.net" modified="2020-09-30T11:57:35.796Z" agent="5.0 (Macintosh; Intel Mac OS X 10_13_6) AppleWebKit/537.36 (KHTML, like Gecko) Chrome/85.0.4183.102 Safari/537.36" etag="KWeo7S2AiqbcJvzQ0Ix6" version="13.7.6" type="github">
  <diagram id="bmhlEbcA9fRNL5O0vbAR" name="Page-1">
    <mxGraphModel dx="1426" dy="747" grid="1" gridSize="10" guides="1" tooltips="1" connect="1" arrows="1" fold="1" page="1" pageScale="1" pageWidth="850" pageHeight="1100" math="0" shadow="0">
      <root>
        <mxCell id="0" />
        <mxCell id="1" parent="0" />
        <mxCell id="N-GH-2d4FOaoW70_5H-s-35" value="" style="rounded=0;whiteSpace=wrap;html=1;" parent="1" vertex="1">
          <mxGeometry x="574" y="450" width="200" height="110" as="geometry" />
        </mxCell>
        <mxCell id="N-GH-2d4FOaoW70_5H-s-38" style="edgeStyle=orthogonalEdgeStyle;rounded=0;orthogonalLoop=1;jettySize=auto;html=1;exitX=1;exitY=0.25;exitDx=0;exitDy=0;entryX=0.72;entryY=-0.027;entryDx=0;entryDy=0;entryPerimeter=0;" parent="1" source="N-GH-2d4FOaoW70_5H-s-34" target="N-GH-2d4FOaoW70_5H-s-35" edge="1">
          <mxGeometry relative="1" as="geometry" />
        </mxCell>
        <mxCell id="N-GH-2d4FOaoW70_5H-s-47" style="edgeStyle=orthogonalEdgeStyle;rounded=0;orthogonalLoop=1;jettySize=auto;html=1;exitX=0;exitY=0.25;exitDx=0;exitDy=0;entryX=0.25;entryY=0;entryDx=0;entryDy=0;" parent="1" edge="1">
          <mxGeometry relative="1" as="geometry">
            <mxPoint x="463" y="337.5" as="sourcePoint" />
            <mxPoint x="293" y="420" as="targetPoint" />
          </mxGeometry>
        </mxCell>
        <mxCell id="N-GH-2d4FOaoW70_5H-s-34" value="" style="rounded=0;whiteSpace=wrap;html=1;" parent="1" vertex="1">
          <mxGeometry x="440" y="310" width="200" height="110" as="geometry" />
        </mxCell>
        <mxCell id="N-GH-2d4FOaoW70_5H-s-42" style="edgeStyle=orthogonalEdgeStyle;rounded=0;orthogonalLoop=1;jettySize=auto;html=1;entryX=0.31;entryY=0;entryDx=0;entryDy=0;entryPerimeter=0;" parent="1" source="N-GH-2d4FOaoW70_5H-s-29" target="N-GH-2d4FOaoW70_5H-s-28" edge="1">
          <mxGeometry relative="1" as="geometry" />
        </mxCell>
        <mxCell id="N-GH-2d4FOaoW70_5H-s-45" style="edgeStyle=orthogonalEdgeStyle;rounded=0;orthogonalLoop=1;jettySize=auto;html=1;exitX=1;exitY=0.5;exitDx=0;exitDy=0;" parent="1" source="N-GH-2d4FOaoW70_5H-s-29" target="N-GH-2d4FOaoW70_5H-s-35" edge="1">
          <mxGeometry relative="1" as="geometry" />
        </mxCell>
        <mxCell id="N-GH-2d4FOaoW70_5H-s-48" style="edgeStyle=orthogonalEdgeStyle;rounded=0;orthogonalLoop=1;jettySize=auto;html=1;exitX=0.5;exitY=0;exitDx=0;exitDy=0;entryX=0;entryY=0.5;entryDx=0;entryDy=0;" parent="1" source="N-GH-2d4FOaoW70_5H-s-29" target="N-GH-2d4FOaoW70_5H-s-34" edge="1">
          <mxGeometry relative="1" as="geometry" />
        </mxCell>
        <mxCell id="N-GH-2d4FOaoW70_5H-s-29" value="" style="rounded=0;whiteSpace=wrap;html=1;" parent="1" vertex="1">
          <mxGeometry x="220" y="420" width="200" height="110" as="geometry" />
        </mxCell>
        <mxCell id="N-GH-2d4FOaoW70_5H-s-41" style="edgeStyle=orthogonalEdgeStyle;rounded=0;orthogonalLoop=1;jettySize=auto;html=1;exitX=0.75;exitY=0;exitDx=0;exitDy=0;entryX=0.93;entryY=1;entryDx=0;entryDy=0;entryPerimeter=0;" parent="1" source="N-GH-2d4FOaoW70_5H-s-28" target="N-GH-2d4FOaoW70_5H-s-35" edge="1">
          <mxGeometry relative="1" as="geometry" />
        </mxCell>
        <mxCell id="N-GH-2d4FOaoW70_5H-s-43" style="edgeStyle=orthogonalEdgeStyle;rounded=0;orthogonalLoop=1;jettySize=auto;html=1;exitX=0.25;exitY=0;exitDx=0;exitDy=0;entryX=0.2;entryY=1.027;entryDx=0;entryDy=0;entryPerimeter=0;" parent="1" source="N-GH-2d4FOaoW70_5H-s-28" target="N-GH-2d4FOaoW70_5H-s-29" edge="1">
          <mxGeometry relative="1" as="geometry" />
        </mxCell>
        <mxCell id="N-GH-2d4FOaoW70_5H-s-82" style="edgeStyle=orthogonalEdgeStyle;shape=link;rounded=0;orthogonalLoop=1;jettySize=auto;html=1;exitX=0;exitY=0;exitDx=460;exitDy=0;exitPerimeter=0;entryX=0.5;entryY=1;entryDx=0;entryDy=0;" parent="1" source="N-GH-2d4FOaoW70_5H-s-1" target="N-GH-2d4FOaoW70_5H-s-28" edge="1">
          <mxGeometry relative="1" as="geometry" />
        </mxCell>
        <mxCell id="N-GH-2d4FOaoW70_5H-s-1" value="" style="shape=cube;whiteSpace=wrap;html=1;boundedLbl=1;backgroundOutline=1;darkOpacity=0.05;darkOpacity2=0.1;" parent="1" vertex="1">
          <mxGeometry x="50" y="791" width="940" height="80" as="geometry" />
        </mxCell>
        <mxCell id="N-GH-2d4FOaoW70_5H-s-19" value="" style="shape=process;whiteSpace=wrap;html=1;backgroundOutline=1;" parent="1" vertex="1">
          <mxGeometry x="250" y="430" width="120" height="60" as="geometry" />
        </mxCell>
        <mxCell id="N-GH-2d4FOaoW70_5H-s-20" value="" style="shape=process;whiteSpace=wrap;html=1;backgroundOutline=1;" parent="1" vertex="1">
          <mxGeometry x="270" y="450" width="120" height="60" as="geometry" />
        </mxCell>
        <mxCell id="N-GH-2d4FOaoW70_5H-s-21" value="" style="shape=process;whiteSpace=wrap;html=1;backgroundOutline=1;" parent="1" vertex="1">
          <mxGeometry x="610" y="462" width="120" height="60" as="geometry" />
        </mxCell>
        <mxCell id="N-GH-2d4FOaoW70_5H-s-22" value="" style="shape=process;whiteSpace=wrap;html=1;backgroundOutline=1;" parent="1" vertex="1">
          <mxGeometry x="614" y="471" width="120" height="60" as="geometry" />
        </mxCell>
        <mxCell id="N-GH-2d4FOaoW70_5H-s-23" value="" style="shape=process;whiteSpace=wrap;html=1;backgroundOutline=1;" parent="1" vertex="1">
          <mxGeometry x="620" y="480" width="120" height="60" as="geometry" />
        </mxCell>
        <mxCell id="N-GH-2d4FOaoW70_5H-s-32" value="" style="shape=process;whiteSpace=wrap;html=1;backgroundOutline=1;" parent="1" vertex="1">
          <mxGeometry x="470" y="350" width="120" height="60" as="geometry" />
        </mxCell>
        <mxCell id="N-GH-2d4FOaoW70_5H-s-33" value="" style="shape=process;whiteSpace=wrap;html=1;backgroundOutline=1;" parent="1" vertex="1">
          <mxGeometry x="460" y="320" width="120" height="60" as="geometry" />
        </mxCell>
        <mxCell id="N-GH-2d4FOaoW70_5H-s-49" value="" style="group" parent="1" vertex="1" connectable="0">
          <mxGeometry x="10" y="630" width="1000" height="110" as="geometry" />
        </mxCell>
        <mxCell id="N-GH-2d4FOaoW70_5H-s-28" value="" style="rounded=0;whiteSpace=wrap;html=1;" parent="N-GH-2d4FOaoW70_5H-s-49" vertex="1">
          <mxGeometry width="1000" height="110" as="geometry" />
        </mxCell>
        <mxCell id="N-GH-2d4FOaoW70_5H-s-2" value="" style="shape=cylinder3;whiteSpace=wrap;html=1;boundedLbl=1;backgroundOutline=1;size=15;" parent="N-GH-2d4FOaoW70_5H-s-49" vertex="1">
          <mxGeometry x="920" y="10" width="60" height="80" as="geometry" />
        </mxCell>
        <mxCell id="N-GH-2d4FOaoW70_5H-s-3" value="" style="shape=cylinder3;whiteSpace=wrap;html=1;boundedLbl=1;backgroundOutline=1;size=15;" parent="N-GH-2d4FOaoW70_5H-s-49" vertex="1">
          <mxGeometry x="860" y="10" width="60" height="80" as="geometry" />
        </mxCell>
        <mxCell id="N-GH-2d4FOaoW70_5H-s-4" value="" style="shape=cylinder3;whiteSpace=wrap;html=1;boundedLbl=1;backgroundOutline=1;size=15;" parent="N-GH-2d4FOaoW70_5H-s-49" vertex="1">
          <mxGeometry x="800" y="10" width="60" height="80" as="geometry" />
        </mxCell>
        <mxCell id="N-GH-2d4FOaoW70_5H-s-5" value="" style="shape=cylinder3;whiteSpace=wrap;html=1;boundedLbl=1;backgroundOutline=1;size=15;" parent="N-GH-2d4FOaoW70_5H-s-49" vertex="1">
          <mxGeometry x="20" y="10" width="60" height="80" as="geometry" />
        </mxCell>
        <mxCell id="N-GH-2d4FOaoW70_5H-s-6" value="" style="shape=cylinder3;whiteSpace=wrap;html=1;boundedLbl=1;backgroundOutline=1;size=15;" parent="N-GH-2d4FOaoW70_5H-s-49" vertex="1">
          <mxGeometry x="80" y="10" width="60" height="80" as="geometry" />
        </mxCell>
        <mxCell id="N-GH-2d4FOaoW70_5H-s-7" value="" style="shape=cylinder3;whiteSpace=wrap;html=1;boundedLbl=1;backgroundOutline=1;size=15;" parent="N-GH-2d4FOaoW70_5H-s-49" vertex="1">
          <mxGeometry x="140" y="10" width="60" height="80" as="geometry" />
        </mxCell>
        <mxCell id="N-GH-2d4FOaoW70_5H-s-8" value="" style="shape=cylinder3;whiteSpace=wrap;html=1;boundedLbl=1;backgroundOutline=1;size=15;" parent="N-GH-2d4FOaoW70_5H-s-49" vertex="1">
          <mxGeometry x="200" y="10" width="60" height="80" as="geometry" />
        </mxCell>
        <mxCell id="N-GH-2d4FOaoW70_5H-s-9" value="" style="shape=cylinder3;whiteSpace=wrap;html=1;boundedLbl=1;backgroundOutline=1;size=15;" parent="N-GH-2d4FOaoW70_5H-s-49" vertex="1">
          <mxGeometry x="260" y="10" width="60" height="80" as="geometry" />
        </mxCell>
        <mxCell id="N-GH-2d4FOaoW70_5H-s-10" value="" style="shape=cylinder3;whiteSpace=wrap;html=1;boundedLbl=1;backgroundOutline=1;size=15;" parent="N-GH-2d4FOaoW70_5H-s-49" vertex="1">
          <mxGeometry x="320" y="10" width="60" height="80" as="geometry" />
        </mxCell>
        <mxCell id="N-GH-2d4FOaoW70_5H-s-11" value="" style="shape=cylinder3;whiteSpace=wrap;html=1;boundedLbl=1;backgroundOutline=1;size=15;" parent="N-GH-2d4FOaoW70_5H-s-49" vertex="1">
          <mxGeometry x="380" y="10" width="60" height="80" as="geometry" />
        </mxCell>
        <mxCell id="N-GH-2d4FOaoW70_5H-s-12" value="" style="shape=cylinder3;whiteSpace=wrap;html=1;boundedLbl=1;backgroundOutline=1;size=15;" parent="N-GH-2d4FOaoW70_5H-s-49" vertex="1">
          <mxGeometry x="440" y="10" width="60" height="80" as="geometry" />
        </mxCell>
        <mxCell id="N-GH-2d4FOaoW70_5H-s-13" value="" style="shape=cylinder3;whiteSpace=wrap;html=1;boundedLbl=1;backgroundOutline=1;size=15;" parent="N-GH-2d4FOaoW70_5H-s-49" vertex="1">
          <mxGeometry x="500" y="10" width="60" height="80" as="geometry" />
        </mxCell>
        <mxCell id="N-GH-2d4FOaoW70_5H-s-14" value="" style="shape=cylinder3;whiteSpace=wrap;html=1;boundedLbl=1;backgroundOutline=1;size=15;" parent="N-GH-2d4FOaoW70_5H-s-49" vertex="1">
          <mxGeometry x="560" y="10" width="60" height="80" as="geometry" />
        </mxCell>
        <mxCell id="N-GH-2d4FOaoW70_5H-s-15" value="" style="shape=cylinder3;whiteSpace=wrap;html=1;boundedLbl=1;backgroundOutline=1;size=15;" parent="N-GH-2d4FOaoW70_5H-s-49" vertex="1">
          <mxGeometry x="620" y="10" width="60" height="80" as="geometry" />
        </mxCell>
        <mxCell id="N-GH-2d4FOaoW70_5H-s-16" value="" style="shape=cylinder3;whiteSpace=wrap;html=1;boundedLbl=1;backgroundOutline=1;size=15;" parent="N-GH-2d4FOaoW70_5H-s-49" vertex="1">
          <mxGeometry x="680" y="10" width="60" height="80" as="geometry" />
        </mxCell>
        <mxCell id="N-GH-2d4FOaoW70_5H-s-17" value="" style="shape=cylinder3;whiteSpace=wrap;html=1;boundedLbl=1;backgroundOutline=1;size=15;" parent="N-GH-2d4FOaoW70_5H-s-49" vertex="1">
          <mxGeometry x="740" y="10" width="60" height="80" as="geometry" />
        </mxCell>
        <mxCell id="dnIv62N089S6kgZb1DLG-6" value="" style="aspect=fixed;html=1;points=[];align=center;image;fontSize=12;image=img/lib/azure2/storage/StorSimple_Data_Managers.svg;" vertex="1" parent="N-GH-2d4FOaoW70_5H-s-49">
          <mxGeometry x="920" y="48" width="31.5" height="42" as="geometry" />
        </mxCell>
        <mxCell id="dnIv62N089S6kgZb1DLG-5" value="" style="aspect=fixed;html=1;points=[];align=center;image;fontSize=12;image=img/lib/azure2/storage/StorSimple_Data_Managers.svg;" vertex="1" parent="N-GH-2d4FOaoW70_5H-s-49">
          <mxGeometry x="860" y="48" width="31.5" height="42" as="geometry" />
        </mxCell>
        <mxCell id="dnIv62N089S6kgZb1DLG-4" value="" style="aspect=fixed;html=1;points=[];align=center;image;fontSize=12;image=img/lib/azure2/storage/StorSimple_Data_Managers.svg;" vertex="1" parent="N-GH-2d4FOaoW70_5H-s-49">
          <mxGeometry x="800" y="48" width="31.5" height="42" as="geometry" />
        </mxCell>
        <mxCell id="dnIv62N089S6kgZb1DLG-3" value="" style="aspect=fixed;html=1;points=[];align=center;image;fontSize=12;image=img/lib/azure2/storage/StorSimple_Data_Managers.svg;" vertex="1" parent="N-GH-2d4FOaoW70_5H-s-49">
          <mxGeometry x="740" y="48" width="31.5" height="42" as="geometry" />
        </mxCell>
        <mxCell id="dnIv62N089S6kgZb1DLG-2" value="" style="aspect=fixed;html=1;points=[];align=center;image;fontSize=12;image=img/lib/azure2/storage/StorSimple_Data_Managers.svg;" vertex="1" parent="N-GH-2d4FOaoW70_5H-s-49">
          <mxGeometry x="680" y="48" width="31.5" height="42" as="geometry" />
        </mxCell>
        <mxCell id="dnIv62N089S6kgZb1DLG-11" value="" style="aspect=fixed;html=1;points=[];align=center;image;fontSize=12;image=img/lib/azure2/storage/StorSimple_Data_Managers.svg;" vertex="1" parent="N-GH-2d4FOaoW70_5H-s-49">
          <mxGeometry x="620" y="48" width="31.5" height="42" as="geometry" />
        </mxCell>
        <mxCell id="dnIv62N089S6kgZb1DLG-10" value="" style="aspect=fixed;html=1;points=[];align=center;image;fontSize=12;image=img/lib/azure2/storage/StorSimple_Data_Managers.svg;" vertex="1" parent="N-GH-2d4FOaoW70_5H-s-49">
          <mxGeometry x="560" y="46" width="31.5" height="42" as="geometry" />
        </mxCell>
        <mxCell id="dnIv62N089S6kgZb1DLG-9" value="" style="aspect=fixed;html=1;points=[];align=center;image;fontSize=12;image=img/lib/azure2/storage/StorSimple_Data_Managers.svg;" vertex="1" parent="N-GH-2d4FOaoW70_5H-s-49">
          <mxGeometry x="500" y="48" width="31.5" height="42" as="geometry" />
        </mxCell>
        <mxCell id="dnIv62N089S6kgZb1DLG-8" value="" style="aspect=fixed;html=1;points=[];align=center;image;fontSize=12;image=img/lib/azure2/storage/StorSimple_Data_Managers.svg;" vertex="1" parent="N-GH-2d4FOaoW70_5H-s-49">
          <mxGeometry x="440" y="48" width="31.5" height="42" as="geometry" />
        </mxCell>
        <mxCell id="dnIv62N089S6kgZb1DLG-7" value="" style="aspect=fixed;html=1;points=[];align=center;image;fontSize=12;image=img/lib/azure2/storage/StorSimple_Data_Managers.svg;" vertex="1" parent="N-GH-2d4FOaoW70_5H-s-49">
          <mxGeometry x="380" y="46" width="31.5" height="42" as="geometry" />
        </mxCell>
        <mxCell id="dnIv62N089S6kgZb1DLG-16" value="" style="aspect=fixed;html=1;points=[];align=center;image;fontSize=12;image=img/lib/azure2/storage/StorSimple_Data_Managers.svg;" vertex="1" parent="N-GH-2d4FOaoW70_5H-s-49">
          <mxGeometry x="20" y="46" width="31.5" height="42" as="geometry" />
        </mxCell>
        <mxCell id="dnIv62N089S6kgZb1DLG-15" value="" style="aspect=fixed;html=1;points=[];align=center;image;fontSize=12;image=img/lib/azure2/storage/StorSimple_Data_Managers.svg;" vertex="1" parent="N-GH-2d4FOaoW70_5H-s-49">
          <mxGeometry x="80" y="46" width="31.5" height="42" as="geometry" />
        </mxCell>
        <mxCell id="dnIv62N089S6kgZb1DLG-14" value="" style="aspect=fixed;html=1;points=[];align=center;image;fontSize=12;image=img/lib/azure2/storage/StorSimple_Data_Managers.svg;" vertex="1" parent="N-GH-2d4FOaoW70_5H-s-49">
          <mxGeometry x="140" y="50" width="31.5" height="42" as="geometry" />
        </mxCell>
        <mxCell id="dnIv62N089S6kgZb1DLG-13" value="" style="aspect=fixed;html=1;points=[];align=center;image;fontSize=12;image=img/lib/azure2/storage/StorSimple_Data_Managers.svg;" vertex="1" parent="N-GH-2d4FOaoW70_5H-s-49">
          <mxGeometry x="200" y="46" width="31.5" height="42" as="geometry" />
        </mxCell>
        <mxCell id="dnIv62N089S6kgZb1DLG-12" value="" style="aspect=fixed;html=1;points=[];align=center;image;fontSize=12;image=img/lib/azure2/storage/StorSimple_Data_Managers.svg;" vertex="1" parent="N-GH-2d4FOaoW70_5H-s-49">
          <mxGeometry x="260" y="48" width="31.5" height="42" as="geometry" />
        </mxCell>
        <mxCell id="dnIv62N089S6kgZb1DLG-18" value="" style="aspect=fixed;html=1;points=[];align=center;image;fontSize=12;image=img/lib/azure2/storage/StorSimple_Data_Managers.svg;" vertex="1" parent="N-GH-2d4FOaoW70_5H-s-49">
          <mxGeometry x="320" y="46" width="31.5" height="42" as="geometry" />
        </mxCell>
        <mxCell id="N-GH-2d4FOaoW70_5H-s-50" value="" style="group" parent="1" vertex="1" connectable="0">
          <mxGeometry x="10" y="908" width="1000" height="110" as="geometry" />
        </mxCell>
        <mxCell id="N-GH-2d4FOaoW70_5H-s-51" value="" style="rounded=0;whiteSpace=wrap;html=1;" parent="N-GH-2d4FOaoW70_5H-s-50" vertex="1">
          <mxGeometry width="1000" height="110" as="geometry" />
        </mxCell>
        <mxCell id="N-GH-2d4FOaoW70_5H-s-52" value="" style="shape=cylinder3;whiteSpace=wrap;html=1;boundedLbl=1;backgroundOutline=1;size=15;" parent="N-GH-2d4FOaoW70_5H-s-50" vertex="1">
          <mxGeometry x="920" y="10" width="60" height="80" as="geometry" />
        </mxCell>
        <mxCell id="N-GH-2d4FOaoW70_5H-s-53" value="" style="shape=cylinder3;whiteSpace=wrap;html=1;boundedLbl=1;backgroundOutline=1;size=15;" parent="N-GH-2d4FOaoW70_5H-s-50" vertex="1">
          <mxGeometry x="860" y="10" width="60" height="80" as="geometry" />
        </mxCell>
        <mxCell id="N-GH-2d4FOaoW70_5H-s-54" value="" style="shape=cylinder3;whiteSpace=wrap;html=1;boundedLbl=1;backgroundOutline=1;size=15;" parent="N-GH-2d4FOaoW70_5H-s-50" vertex="1">
          <mxGeometry x="800" y="10" width="60" height="80" as="geometry" />
        </mxCell>
        <mxCell id="N-GH-2d4FOaoW70_5H-s-55" value="" style="shape=cylinder3;whiteSpace=wrap;html=1;boundedLbl=1;backgroundOutline=1;size=15;" parent="N-GH-2d4FOaoW70_5H-s-50" vertex="1">
          <mxGeometry x="20" y="10" width="60" height="80" as="geometry" />
        </mxCell>
        <mxCell id="N-GH-2d4FOaoW70_5H-s-56" value="" style="shape=cylinder3;whiteSpace=wrap;html=1;boundedLbl=1;backgroundOutline=1;size=15;" parent="N-GH-2d4FOaoW70_5H-s-50" vertex="1">
          <mxGeometry x="80" y="10" width="60" height="80" as="geometry" />
        </mxCell>
        <mxCell id="N-GH-2d4FOaoW70_5H-s-57" value="" style="shape=cylinder3;whiteSpace=wrap;html=1;boundedLbl=1;backgroundOutline=1;size=15;" parent="N-GH-2d4FOaoW70_5H-s-50" vertex="1">
          <mxGeometry x="140" y="10" width="60" height="80" as="geometry" />
        </mxCell>
        <mxCell id="N-GH-2d4FOaoW70_5H-s-58" value="" style="shape=cylinder3;whiteSpace=wrap;html=1;boundedLbl=1;backgroundOutline=1;size=15;" parent="N-GH-2d4FOaoW70_5H-s-50" vertex="1">
          <mxGeometry x="200" y="10" width="60" height="80" as="geometry" />
        </mxCell>
        <mxCell id="N-GH-2d4FOaoW70_5H-s-59" value="" style="shape=cylinder3;whiteSpace=wrap;html=1;boundedLbl=1;backgroundOutline=1;size=15;" parent="N-GH-2d4FOaoW70_5H-s-50" vertex="1">
          <mxGeometry x="260" y="10" width="60" height="80" as="geometry" />
        </mxCell>
        <mxCell id="N-GH-2d4FOaoW70_5H-s-60" value="" style="shape=cylinder3;whiteSpace=wrap;html=1;boundedLbl=1;backgroundOutline=1;size=15;" parent="N-GH-2d4FOaoW70_5H-s-50" vertex="1">
          <mxGeometry x="320" y="10" width="60" height="80" as="geometry" />
        </mxCell>
        <mxCell id="N-GH-2d4FOaoW70_5H-s-61" value="" style="shape=cylinder3;whiteSpace=wrap;html=1;boundedLbl=1;backgroundOutline=1;size=15;" parent="N-GH-2d4FOaoW70_5H-s-50" vertex="1">
          <mxGeometry x="380" y="10" width="60" height="80" as="geometry" />
        </mxCell>
        <mxCell id="N-GH-2d4FOaoW70_5H-s-62" value="" style="shape=cylinder3;whiteSpace=wrap;html=1;boundedLbl=1;backgroundOutline=1;size=15;" parent="N-GH-2d4FOaoW70_5H-s-50" vertex="1">
          <mxGeometry x="440" y="10" width="60" height="80" as="geometry" />
        </mxCell>
        <mxCell id="N-GH-2d4FOaoW70_5H-s-63" value="" style="shape=cylinder3;whiteSpace=wrap;html=1;boundedLbl=1;backgroundOutline=1;size=15;" parent="N-GH-2d4FOaoW70_5H-s-50" vertex="1">
          <mxGeometry x="500" y="10" width="60" height="80" as="geometry" />
        </mxCell>
        <mxCell id="N-GH-2d4FOaoW70_5H-s-64" value="" style="shape=cylinder3;whiteSpace=wrap;html=1;boundedLbl=1;backgroundOutline=1;size=15;" parent="N-GH-2d4FOaoW70_5H-s-50" vertex="1">
          <mxGeometry x="560" y="10" width="60" height="80" as="geometry" />
        </mxCell>
        <mxCell id="N-GH-2d4FOaoW70_5H-s-65" value="" style="shape=cylinder3;whiteSpace=wrap;html=1;boundedLbl=1;backgroundOutline=1;size=15;" parent="N-GH-2d4FOaoW70_5H-s-50" vertex="1">
          <mxGeometry x="620" y="10" width="60" height="80" as="geometry" />
        </mxCell>
        <mxCell id="N-GH-2d4FOaoW70_5H-s-66" value="" style="shape=cylinder3;whiteSpace=wrap;html=1;boundedLbl=1;backgroundOutline=1;size=15;" parent="N-GH-2d4FOaoW70_5H-s-50" vertex="1">
          <mxGeometry x="680" y="10" width="60" height="80" as="geometry" />
        </mxCell>
        <mxCell id="N-GH-2d4FOaoW70_5H-s-67" value="" style="shape=cylinder3;whiteSpace=wrap;html=1;boundedLbl=1;backgroundOutline=1;size=15;" parent="N-GH-2d4FOaoW70_5H-s-50" vertex="1">
          <mxGeometry x="740" y="10" width="60" height="80" as="geometry" />
        </mxCell>
        <mxCell id="N-GH-2d4FOaoW70_5H-s-74" value="Data Nodes" style="text;html=1;strokeColor=none;fillColor=none;align=center;verticalAlign=middle;whiteSpace=wrap;rounded=0;" parent="N-GH-2d4FOaoW70_5H-s-50" vertex="1">
          <mxGeometry x="60" y="90" width="90" height="20" as="geometry" />
        </mxCell>
        <mxCell id="N-GH-2d4FOaoW70_5H-s-68" value="&lt;b&gt;Region Servers&lt;/b&gt;" style="text;html=1;strokeColor=none;fillColor=none;align=center;verticalAlign=middle;whiteSpace=wrap;rounded=0;" parent="1" vertex="1">
          <mxGeometry x="520" y="660" width="40" height="20" as="geometry" />
        </mxCell>
        <mxCell id="N-GH-2d4FOaoW70_5H-s-69" value="HDFS" style="text;html=1;strokeColor=none;fillColor=none;align=center;verticalAlign=middle;whiteSpace=wrap;rounded=0;" parent="1" vertex="1">
          <mxGeometry x="90" y="789" width="40" height="20" as="geometry" />
        </mxCell>
        <mxCell id="N-GH-2d4FOaoW70_5H-s-81" style="edgeStyle=orthogonalEdgeStyle;shape=link;rounded=0;orthogonalLoop=1;jettySize=auto;html=1;exitX=0.5;exitY=0;exitDx=0;exitDy=0;entryX=0.488;entryY=0.988;entryDx=0;entryDy=0;entryPerimeter=0;" parent="1" source="N-GH-2d4FOaoW70_5H-s-51" target="N-GH-2d4FOaoW70_5H-s-1" edge="1">
          <mxGeometry relative="1" as="geometry" />
        </mxCell>
        <mxCell id="N-GH-2d4FOaoW70_5H-s-85" value="Hbase Masters" style="text;html=1;strokeColor=none;fillColor=none;align=center;verticalAlign=middle;whiteSpace=wrap;rounded=0;" parent="1" vertex="1">
          <mxGeometry x="310" y="470" width="40" height="20" as="geometry" />
        </mxCell>
        <mxCell id="N-GH-2d4FOaoW70_5H-s-86" value="Phoenix" style="text;html=1;strokeColor=none;fillColor=none;align=center;verticalAlign=middle;whiteSpace=wrap;rounded=0;" parent="1" vertex="1">
          <mxGeometry x="500" y="340" width="40" height="20" as="geometry" />
        </mxCell>
        <mxCell id="N-GH-2d4FOaoW70_5H-s-87" value="Zookeeper" style="text;html=1;strokeColor=none;fillColor=none;align=center;verticalAlign=middle;whiteSpace=wrap;rounded=0;" parent="1" vertex="1">
          <mxGeometry x="660" y="495" width="40" height="20" as="geometry" />
        </mxCell>
        <mxCell id="dnIv62N089S6kgZb1DLG-23" style="edgeStyle=orthogonalEdgeStyle;rounded=0;orthogonalLoop=1;jettySize=auto;html=1;entryX=0.91;entryY=-0.027;entryDx=0;entryDy=0;entryPerimeter=0;" edge="1" parent="1" source="dnIv62N089S6kgZb1DLG-22" target="N-GH-2d4FOaoW70_5H-s-35">
          <mxGeometry relative="1" as="geometry" />
        </mxCell>
        <mxCell id="dnIv62N089S6kgZb1DLG-25" style="edgeStyle=orthogonalEdgeStyle;rounded=0;orthogonalLoop=1;jettySize=auto;html=1;entryX=0.87;entryY=-0.018;entryDx=0;entryDy=0;entryPerimeter=0;" edge="1" parent="1">
          <mxGeometry relative="1" as="geometry">
            <mxPoint x="536" y="146" as="sourcePoint" />
            <mxPoint x="610" y="308.02" as="targetPoint" />
          </mxGeometry>
        </mxCell>
        <mxCell id="dnIv62N089S6kgZb1DLG-26" style="edgeStyle=orthogonalEdgeStyle;rounded=0;orthogonalLoop=1;jettySize=auto;html=1;entryX=0.25;entryY=0;entryDx=0;entryDy=0;" edge="1" parent="1" source="dnIv62N089S6kgZb1DLG-22" target="N-GH-2d4FOaoW70_5H-s-29">
          <mxGeometry relative="1" as="geometry">
            <mxPoint x="270" y="410" as="targetPoint" />
          </mxGeometry>
        </mxCell>
        <mxCell id="dnIv62N089S6kgZb1DLG-28" style="edgeStyle=orthogonalEdgeStyle;rounded=0;orthogonalLoop=1;jettySize=auto;html=1;entryX=0.064;entryY=0;entryDx=0;entryDy=0;entryPerimeter=0;" edge="1" parent="1" source="dnIv62N089S6kgZb1DLG-22" target="N-GH-2d4FOaoW70_5H-s-28">
          <mxGeometry relative="1" as="geometry">
            <Array as="points">
              <mxPoint x="74" y="146" />
            </Array>
          </mxGeometry>
        </mxCell>
        <mxCell id="dnIv62N089S6kgZb1DLG-22" value="" style="aspect=fixed;html=1;points=[];align=center;image;fontSize=12;image=img/lib/azure2/azure_stack/User_Subscriptions.svg;" vertex="1" parent="1">
          <mxGeometry x="500" y="80" width="68" height="66" as="geometry" />
        </mxCell>
        <mxCell id="dnIv62N089S6kgZb1DLG-27" value="&lt;h1&gt;Access pattern&lt;/h1&gt;&lt;div&gt;Step 1: User Application connects to the zookeeper, identifies the Phoenix Query Server.&lt;/div&gt;&lt;div&gt;Step 2:&amp;nbsp; Phoenix gives the SQL Layer on top of Hbase, Active Hbase master is identified&lt;/div&gt;&lt;div&gt;Step 3: Fetching Active Hbase Master to figure out the Hbase region servers that are part of the table&lt;/div&gt;&lt;div&gt;Step 4: connect to zookeeper to identify the correct regions, their region server locations&lt;/div&gt;&lt;div&gt;Step 5: Connect to the region servers and fetch the data, based on the predicate&lt;/div&gt;" style="text;html=1;strokeColor=none;fillColor=none;spacing=5;spacingTop=-20;whiteSpace=wrap;overflow=hidden;rounded=0;" vertex="1" parent="1">
          <mxGeometry x="850" y="110" width="430" height="490" as="geometry" />
        </mxCell>
      </root>
    </mxGraphModel>
  </diagram>
</mxfile>
